<svg width="1600" height="900" viewBox="0 0 1600 900" fill="none" xmlns="http://www.w3.org/2000/svg">
  <rect width="1600" height="900" fill="#F4F4F4"/>
  <rect x="100" y="100" width="1400" height="700" rx="40" fill="#FFFFFF" stroke="#E8E8E8" stroke-width="4"/>
  <text x="160" y="240" fill="#E02020" font-family="Avenir Next, Segoe UI, sans-serif" font-size="28" font-weight="700" letter-spacing="4">ECWID OWNER DASHBOARD</text>
  <text x="160" y="340" fill="#1E1E1E" font-family="-apple-system, BlinkMacSystemFont, Segoe UI, sans-serif" font-size="80" font-weight="800">Live Visitor Geo Pulse</text>
  <text x="160" y="420" fill="#666666" font-family="-apple-system, BlinkMacSystemFont, Segoe UI, sans-serif" font-size="34">Operational pulse with geography, revenue, low-stock</text>
  <text x="160" y="480" fill="#666666" font-family="-apple-system, BlinkMacSystemFont, Segoe UI, sans-serif" font-size="34">insight, and preview mode.</text>
  
  <!-- Abstract Dashboard Elements -->
  <rect x="160" y="580" width="300" height="160" rx="32" fill="#F8F8F8"/>
  <text x="200" y="640" fill="#888888" font-family="sans-serif" font-size="24">Revenue 7d</text>
  <text x="200" y="700" fill="#1E1E1E" font-family="sans-serif" font-size="64" font-weight="700">$8.4k</text>

  <rect x="490" y="580" width="300" height="160" rx="32" fill="#F8F8F8"/>
  <text x="530" y="640" fill="#888888" font-family="sans-serif" font-size="24">Countries</text>
  <text x="530" y="700" fill="#1E1E1E" font-family="sans-serif" font-size="64" font-weight="700">12</text>

  <rect x="820" y="580" width="300" height="160" rx="32" fill="#F8F8F8"/>
  <text x="860" y="640" fill="#888888" font-family="sans-serif" font-size="24">Low Stock</text>
  <text x="860" y="700" fill="#1E1E1E" font-family="sans-serif" font-size="64" font-weight="700">5</text>

  <!-- Big simple flat pulse logo in the corner -->
  <g transform="translate(1200, 200) scale(0.6)">
    <circle cx="256" cy="256" r="160" fill="#F4F4F4"/>
    <circle cx="256" cy="256" r="100" fill="#E8E8E8"/>
    <path d="M256 128 C256 128, 192 200, 192 256 C192 291 220 320 256 320 C292 320 320 291 320 256 C320 200 256 128 256 128 Z" fill="#E02020"/>
    <circle cx="256" cy="236" r="24" fill="#FFFFFF"/>
  </g>
</svg>
